<?xml version="1.0" encoding="utf-8"?>
<!-- Generator: Adobe Illustrator 27.9.2, SVG Export Plug-In . SVG Version: 6.00 Build 0)  -->
<svg version="1.1" id="Layer_1" xmlns="http://www.w3.org/2000/svg" xmlns:xlink="http://www.w3.org/1999/xlink" x="0px" y="0px"
	 viewBox="0 0 600 600" style="enable-background:new 0 0 600 600;" xml:space="preserve">
<style type="text/css">
	.st0{fill:#CC6666;}
	.st1{fill:#FFFFFF;}
</style>
<path class="st0" d="M525.7,378.6c-7-21.1-2.3-43.4-2.3-43.4c6.7-24.7,10.2-51,10.2-78.1c0-146.3-103.6-238.3-231.4-238.3
	s-231.4,92-231.4,238.3c0,25.1,3.1,49.4,8.7,72.4c0,0,4,15.7-8.7,53c-4.9,8.3-8.5,17.1-8.5,27.3c0,42.5,45.4,77,84.8,77
	c8.6,15,3.8,29.1,4.5,32.7l-2.3,0.2v20.1c0,4.6,2.3,7.4,6.9,10.8s17.6,4.8,17.6,4.8s1.8,6.9,5.9,7.6l14.7,4c4.1,0.7,7.5-2.4,7.5-7
	v-2.5h0.2v2.5c3.1,10.8,9.1,20.8,13.7,19.1c7.2-2.7,7.5-10.1,14.2-14.1v4c0,4.6,3.5,10.1,7.5,10.5l13.5,2.7c3.6,0.7,7.5-3.6,7.5-8.2
	v1.7c0,11.7,5,15.1,13.4,14.6l21.5,1c4.1,0.7,6-4.3,6-8.9v-0.6c0.1,4.5,1.9,9.3,6,8.7l21.5-1c8.4,0.5,13.4-2.9,13.4-14.6v-1.7
	c0,4.6,3.8,8.8,7.5,8.2l13.5-2.7c4-0.5,7.5-5.9,7.5-10.5v-4c6.7,4,7,11.5,14.2,14.1c4.6,1.7,10.7-8.4,13.7-19.1v-1.7h0.2v1.7
	c0,4.6,3.4,7.8,7.5,7l14.7-4c4.1-0.7,5.9-7.6,5.9-7.6s13-1.4,17.6-4.8c4.6-3.3,6.9-6.1,6.9-10.8v-20.1l-2.3,0c4.7-8.4-5-15.8,4.8-32
	c41.5,0,84.8-34.5,84.8-77C536.7,398,531.8,388.1,525.7,378.6z"/>
<g>
	<path class="st1" d="M70.5,382.3c4.7-14.7,8.8-29.9,9-45.5c0-2.5-0.1-5.2-0.7-7.6c-6.3-25.2-9.4-51.2-8.9-77.1
		c0.1-10.1,0.8-21,2.1-31.1c0.2-2,0.7-5.8,1.1-7.7c0.9-6.8,2.6-14.4,4-21.1l0.5-1.9l2-7.5c5.5-19.9,13.8-39.4,24.4-57.2
		c6.7-10.9,14.4-21.8,23-31.4c4.9-5.7,10.8-11.6,16.4-16.7l2.9-2.6l3-2.5c27.6-23.6,61.3-39.9,96.6-48c1.4-0.3,8.2-1.8,9.5-2
		c2.8-0.5,6.8-1.1,9.6-1.6c3.5-0.6,9.9-1.2,13.5-1.7c3.6-0.2,8.1-0.6,11.6-0.8c6.8-0.2,14.7-0.4,21.4-0.1
		c53.8,1.6,105.7,20.3,146.3,56c52.3,46.3,76.4,112.4,76.3,181.3c0.1,26-3.2,51.9-9.8,77c-0.7,2.5-1.2,5-1.5,7.6
		c-1.6,12.8-1.1,26,2.8,38.4l-0.2,0.1c-4.7-14.8-5.4-31.1-1.9-46.2c13.8-55,12.7-114.4-6.9-167.9c-14.5-40-40.9-75.7-75.2-100.9
		C403,35.2,355.2,20.3,307.6,19.3c-5.2-0.3-12.1,0-17.4,0.1c-2.8,0.1-6.9,0.5-9.7,0.6c-2.6,0.1-8.9,1-11.6,1.2
		c-2.2,0.2-5.5,0.8-7.7,1.1c-31.9,5-62.9,16.5-89.9,34.4c-18.3,12.1-34.8,27.1-48.5,44.2c-14.5,18.1-26.1,38.6-34.4,60.3
		c-11.1,28.9-16.5,60-17,90.9c-0.6,25.8,2.2,51.7,8.3,76.9c0.6,2.6,0.6,5.2,0.6,7.9c-0.1,5.2-0.7,10.4-1.6,15.5
		c-1.8,10.2-4.7,20.2-8.1,30C70.7,382.4,70.5,382.3,70.5,382.3L70.5,382.3z"/>
</g>
<path class="st1" d="M336.3,422.1c-15.6-27.7-22-59.3-37.9-59.8v-0.1c-16.1,0-22.9,36-38,60c-12,19-2.2,38.6,8.8,39.1
	c18.3,0.8,23.2-16.5,28.9-17.4v0.1c5.9,0,10.5,18.2,29.1,17.4C338.3,460.8,347.4,441.7,336.3,422.1z"/>
<g>
	<path class="st1" d="M446.9,232.1c14.8,4.7,30.1,10.6,40.9,22.3c3.6,4.1,6.8,9.6,6.4,15.3c0,21.3,2.5,45.9,9.9,66.9
		c3.6,10.8,9.6,20.2,16.2,29.5c6.6,9.6,13.7,19.4,16.8,30.9c3.2,11.6,1.5,24.1-2.7,35.2c-8.6,22.1-27.4,38.6-48.8,47.9
		c-10.7,4.6-22.2,7.2-33.8,7.4l0.8-0.5c-1.4,2.4-2.5,4.9-3.3,7.5c-0.7,2.6-1,5.3-0.8,8c0.4,5.6,3,12.2-0.5,17.4l-0.5,0.9l-1.1-0.1
		c-8.1-0.6-16.3,2.5-22.6,7.5l-0.9,0.7l-1.1-0.3c-9-2.5-18,3.2-24.7,8.7c-9.1-3-19.5-0.8-27.2,4.7l-0.7,0.5l-0.8-0.2
		c-10.1-2.1-20.6,2.5-27.6,9.8c-13.8-3.3-28.9-2.2-41.7,3.9l-0.2-0.4c12.5-7.2,27.7-9.2,41.9-6.7l-1.5,0.5c3.8-4.1,8.3-7.2,13.5-9.3
		c5.2-2.1,11-2.7,16.5-1.7l-1.5,0.3c8.3-6.3,19.6-8.8,29.8-6.1l-2.1,0.4c7.7-6.2,18-11.8,28-8.5l-2,0.3c7.3-5.5,16.6-8.5,25.8-7.4
		l-1.6,0.8c3.1-4.7,0.6-10.2,0.7-15.6c-0.1-4.4,1-8.8,2.9-12.8c0.7-1.5,1.5-2.9,2.4-4.3c5.9,0.1,11.8-0.5,17.5-1.7
		c11.2-2.4,21.8-7.1,31.2-13.6c18.5-12.8,32.7-33,34.2-55.7c1.1-11.3-2.5-21.9-8.4-31.4c-6-9.8-13.5-18.6-19.3-28.7
		c-3-5.2-5.4-10.6-7.3-16.1c-7.6-22.4-9.6-46.3-8.7-69.8c-0.2-12.9-17.5-24.1-29.5-29.9c-4.6-2.3-9.4-4.3-14.2-6.2
		C446.7,232.6,446.9,232.1,446.9,232.1L446.9,232.1z"/>
</g>
<g>
	<path class="st1" d="M298.7,546.4c-0.4-5.9-0.6-14.4-0.8-20.4c-0.4-6.9-0.4-13.7,1.3-20.4h0.3c1.6,6.8,1.4,13.6,0.8,20.4l-0.6,10.2
		c-0.2,3.4-0.4,6.8-0.7,10.2C299,546.4,298.7,546.4,298.7,546.4L298.7,546.4z"/>
</g>
<g>
	<path class="st1" d="M337.9,544c-4.4-4.7-7.4-10.5-9.6-16.5c-2.4-6-3.3-12.7-1.7-19h0.3c0.5,1.6,0.8,3.1,1.1,4.6
		c1,4.5,1.6,9.1,2.6,13.7c1.6,6,3.9,11.9,7.5,17C338.1,543.8,337.9,544,337.9,544L337.9,544z"/>
</g>
<g>
	<path class="st1" d="M368.5,537.8c-2.8-3.5-5.1-7.2-6.9-11.2c-0.9-2-2-4.1-2.2-6.3c-0.2-2.3-0.2-4.6,0.7-6.8l0.3,0
		c1.5,4.2,2.4,8,3.4,12.3c1.3,4.1,3,8.1,4.9,11.9L368.5,537.8L368.5,537.8z"/>
</g>
<g>
	<path class="st1" d="M397.4,534c-2.6-3.3-4.9-6.8-6.8-10.5c-1-1.9-2.1-3.7-2.5-5.8c-0.5-2.1-0.6-4.3-0.1-6.5l0.3,0
		c2.1,3.8,3.3,7.3,4.5,11.4c1.4,3.8,3,7.6,4.8,11.3L397.4,534L397.4,534z"/>
</g>
<g>
	<path class="st1" d="M423,529c-2.4-3-4.2-6.4-5.7-10c-1.2-2.7-2.1-5.7-1.4-8.6c0.1-1,0.5-2,1-2.9l0.3,0c1.2,3.8,1.8,7,2.4,10.8
		c0.9,3.6,2.1,7.2,3.6,10.5C423.3,528.9,423,529,423,529L423,529z"/>
</g>
<g>
	<path class="st1" d="M151.5,519.6c-2-2.5-0.4-5.8-0.1-8.5c0.4-2.7,0.3-5.5-0.3-8.2c-1-5.4-3.4-10.7-5.7-15.6l1.5,1
		c-1.5,0-2.9,0-4.4,0c-40.1-1.8-78.4-34.9-81-75.8c-2-26.7,20.5-45.3,30.3-68c0.5-1.2,1.8-4.7,2.3-5.9c0.5-1.5,1.5-4.5,2-6
		c5.9-19.9,8.1-43.1,8-62.8c-0.4-5.3,2.2-10,5.2-14.1c6.4-7.9,15.1-13,24.1-17.1l1.8-0.8c0.6-0.2,1.2-0.5,1.8-0.7
		c2-0.7,5.2-2.1,7.3-2.7c2.5-0.8,4.9-1.6,7.4-2.3l0.2,0.5c-5.3,2.2-10.7,4.6-15.8,7.2c-8.2,4.4-16.6,9.7-22.5,16.9
		c-2.5,3.2-4.6,6.9-5,11c1,25.3-1.3,51-10.8,74.6c-1.6,4-3.7,8.2-5.8,11.9c-5.9,10-13.5,18.7-19.8,28.4c-3.1,4.8-5.7,9.8-7.4,15.2
		c-4.6,15-0.4,31.6,7.9,44.6c15.6,23.8,45.7,41.6,74.2,42.6l1.1,0.1c1.1,2.5,2.6,6.4,3.4,9c1.7,5.6,2.8,11.6,1.3,17.3
		c-0.3,1.4-0.8,2.8-1.2,4.1c-0.4,1.3-0.4,2.7,0.3,3.8C151.9,519.3,151.5,519.6,151.5,519.6L151.5,519.6z"/>
</g>
<g>
	<g>
		<path class="st1" d="M340.2,554.5c0.5,5.4,0.7,10.8,0.8,16.3c0.1,5.8,0.2,13-5,16.7c-4.4,3-9.8,1.7-14.7,2.5
			c-5.2,0.5-10.9,0.9-16.1,1.2l0.1,0c-0.8,0.1-1.7,0.1-2.6-0.2c-5.4-2.5-4.6-9.6-4.5-14.5c0.1-5.7,0.4-11.3,0.8-17h0.2
			c0.4,5.7,0.7,11.3,0.8,17c0.1,2.4-0.1,6,0.5,8.2c0.6,2.5,2.1,4.9,4.5,4.5c5.2-0.2,11-0.3,16.2-0.3c5-0.4,11.4,1.3,15.1-3
			c2.3-2.7,2.6-6.4,2.8-9.8c0.1-3.5,0.1-7.2,0.2-10.8c0.1-3.6,0.3-7.2,0.6-10.8C340,554.5,340.2,554.5,340.2,554.5L340.2,554.5z"/>
	</g>
	<g>
		<path class="st1" d="M396.6,540.4c0.6,6.2,0.9,12.5,0.8,18.7c-1.7,5.5-4.5,10.6-7.7,15.3c-3,4-5.6,5.9-10.2,2.7
			c-4.9-3.4-6.8-10-11.9-12.7c0.1-6.3,0.4-12.7,0.9-19h0.2c0.6,6.1,0.8,12.3,0.9,18.4l-0.5-0.9c5.3,2.8,6.9,9.2,11.3,12.8
			c1,0.8,2.2,1.5,3.4,1.8c2.2,0,3.9-1.8,5.4-3.5c3.5-4.4,5.1-10.1,6.5-15.4c-0.2-3.3,0.1-9.4,0.4-13.6c0.1-1.5,0.2-3.1,0.4-4.6
			C396.4,540.4,396.6,540.4,396.6,540.4L396.6,540.4z"/>
	</g>
	<g>
		<path class="st1" d="M368.6,546.2c0.6,5.9,0.8,11.9,0.8,17.8c0,3,0,6.3-1.6,8.9c-1.4,2.7-3.7,5.4-6.7,5.9
			c-3.6,0.8-7.2,1.8-10.9,2.7c-1.9,0.5-4.2,1.1-6,0.1c-3.9-1.8-5.6-6.3-5.2-10.3c0.1-5.6,0.4-11.2,0.9-16.7h0.2
			c0.4,3.7,0.6,7.4,0.7,11.2c0.4,4.9-1,11.4,4.2,14.1c1.6,0.9,3.2,0.2,4.9,0c3.7-0.6,7.4-1,11-1.7c2.9-0.3,5-3,6-5.6
			c1.2-2.8,0.7-5.6,0.6-8.6c0-6,0.2-11.9,0.8-17.8C368.4,546.2,368.6,546.2,368.6,546.2L368.6,546.2z"/>
	</g>
	<g>
		<path class="st1" d="M423.4,530.4c0.6,3.3,1.1,6.7,1.4,10c0.4,3.4,0.7,6.7,0.8,10.1c-0.2,3.6-1.3,7.2-3.7,9.9
			c-0.8,0.9-2,1.6-3.1,1.8c-2.4,0.7-4.8,1.5-7.2,2.3c-2.4,0.8-4.8,1.6-7.3,2.3c-1.4,0.3-3,0.2-4.4-0.4c-3.5-1.4-4.8-5.5-4.4-8.9
			l0-1.9c0.1-5,0.4-10.1,0.9-15.1h0.2c0.5,5,0.7,10.1,0.9,15.1c0,3.3-0.1,7.3,3.3,9c0.8,0.5,2.4,0.6,3,0.5c2.5-0.6,4.9-1.2,7.4-1.7
			c2.5-0.5,5-1.1,7.5-1.7c2.2-0.4,3.7-2.5,4.4-4.5c1.8-5.5,0.1-10.9,0.1-16.6c-0.1-3.4-0.2-6.7-0.1-10.1
			C423.2,530.4,423.4,530.4,423.4,530.4L423.4,530.4z"/>
	</g>
	<g>
		<path class="st1" d="M449.3,518.6c1.1,6.5,0.8,13,0.2,19.4c0.4,5.9-3.6,10.8-8.6,13.5c-3,1.5-6.3,2.1-9.6,2.5
			c-2.2,0.3-4.4,0.4-6.5,0.3l0-0.2c4.2-1.2,8.4-2.1,12.4-3.5c1.9-0.7,3.9-1.3,5.5-2.6c2.5-1.9,5.1-3.8,6-6.9
			c0.7-3.1-0.1-6.4-0.2-9.6c-0.2-4.3,0-8.7,0.7-13C449.1,518.6,449.3,518.6,449.3,518.6L449.3,518.6z"/>
	</g>
	<g>
		<path class="st1" d="M258.4,555.4c0.6,7.2,0.7,14.5,0.8,21.7c0,5,1.5,11.3,7.2,12.4c1.7,0.4,3.5,0.5,5.3,0.3
			c1.8,0.1,3.6,0,5.4,0.1c5.2,0,11,0.1,16.2,0.3c2.3,0.5,3.9-1.9,4.5-4.5c0.6-2.2,0.4-5.9,0.5-8.2c0.1-5.7,0.4-11.3,0.8-17h0.2
			c0.4,5.7,0.7,11.3,0.8,17c0,2.6,0.4,6.1-0.3,8.7c-0.6,3.3-3.3,6.6-6.7,6c-5.2-0.3-10.9-0.7-16.1-1.2c-1.8-0.1-3.6-0.3-5.4-0.4
			c-1.6,0.1-3.7,0-5.5-0.4c-8.5-1.7-9.2-11.3-8.8-18.4c0.1-5.4,0.3-10.8,0.8-16.3C258.2,555.4,258.4,555.4,258.4,555.4L258.4,555.4z
			"/>
	</g>
	<g>
		<path class="st1" d="M202,541.3c0.6,5.7,0.9,13.4,0.8,18.2c1.9,6.5,4.1,15.7,10.7,18.8c0.8,0.2,1.5,0.2,2.3-0.2
			c2.5-1.1,4.3-3.1,5.8-5.4c2.1-3.2,4.2-6.8,7.7-8.8l-0.5,0.9c0.1-6.2,0.4-12.3,0.9-18.4h0.2c0.6,6.3,0.9,12.7,0.9,19
			c-5.1,2.7-7,9.3-11.9,12.7c-4.6,3.2-7.2,1.4-10.2-2.7c-3.3-4.7-6-9.8-7.7-15.3c-0.1-4.7,0.1-9.4,0.4-14.1c0.1-1.5,0.2-3.1,0.4-4.6
			L202,541.3L202,541.3z"/>
	</g>
	<g>
		<path class="st1" d="M229.9,547c0.6,5.9,0.8,11.9,0.8,17.8c0,1.5-0.1,3-0.1,4.4c0,2.8,1.1,5.8,3.1,7.8c1,1,2.3,1.8,3.7,2
			c4.6,0.7,9.2,1.3,13.8,2.1c2.4,0.2,4.4-1.9,5.3-4c1.4-3.3,0.6-7.1,1-10.6c0.2-3.7,0.4-7.4,0.7-11.2h0.2c0.5,5.6,0.8,11.2,0.9,16.7
			c0.7,5-2.7,11.4-8.4,10.8c-4.6-0.9-9.1-2.2-13.6-3.2c-1.4-0.2-2.9-1.1-4-2.2c-2.2-2.2-3.7-5-4.1-8.1c-0.1-1.6-0.2-3-0.2-4.5
			c0-6,0.2-11.9,0.8-17.8C229.7,547,229.9,547,229.9,547L229.9,547z"/>
	</g>
	<g>
		<path class="st1" d="M175.1,531.2c0.2,6.7-0.1,13.5-0.8,20.2c-0.1,1.9,0.1,4.5,0.9,6.5c0.7,2,2.1,4.1,4.4,4.5
			c2.5,0.6,5,1.2,7.4,1.7c2.5,0.5,4.9,1.1,7.4,1.7c0.6,0.1,2.2,0,3-0.5c3.4-1.6,3.2-5.7,3.3-9c0.1-5,0.4-10.1,0.9-15.1h0.2
			c0.5,5,0.7,10.1,0.9,15.1l0,1.9c0.4,3.5-0.9,7.5-4.4,8.9c-1.4,0.6-2.9,0.7-4.4,0.4c-2.4-0.7-4.9-1.5-7.3-2.3
			c-2.4-0.8-4.9-1.7-7.2-2.3c-2.5-0.5-4.1-2.7-5.1-4.8c-2.7-5.3-1.4-11.4-0.9-17c0.4-3.3,0.8-6.7,1.4-10
			C174.9,531.2,175.1,531.2,175.1,531.2L175.1,531.2z"/>
	</g>
	<g>
		<path class="st1" d="M149.2,519.5c0.7,4.3,0.9,8.6,0.7,13c-0.1,3.2-1,6.5-0.2,9.6c0.8,3.1,3.5,5,6,6.9c1.6,1.3,3.6,2,5.5,2.6
			c4,1.3,8.2,2.3,12.4,3.5l0,0.2c-2.2,0.1-4.4,0-6.5-0.3c-3.3-0.4-6.6-1.1-9.6-2.5c-5-2.6-9-7.6-8.6-13.5c-0.3-4.3-0.8-8.6-0.4-13
			c0.1-2.2,0.3-4.3,0.7-6.5L149.2,519.5L149.2,519.5z"/>
	</g>
</g>
<path class="st1" d="M483.9,272.1l-107.9-8c-13.2-0.9-26,2.5-40.5,12.3c-6.2-1.2-19.3-4.5-34-4.5c-14.1,0-26.1,2.8-32.6,4
	c-10.6-8-27.9-12.9-41.1-12l-107.9,8C98,273.3,82,292.4,84.2,314.2l4.9,47c2.3,21.8,22.1,38.1,43.9,36.1l68.1-6.1
	c21.9-2,45.1-20.7,51.7-41.6c0,0,17.3-42.6,17.5-45.3c5-11.1,18.3-20.4,31-20.4c13.2,0,27.3,9.3,31.9,20.8
	c0.2,2.6,17.5,45.1,17.5,45.1c6.6,20.9,29.9,39.6,51.7,41.6l68.1,6.1c21.9,2,41.6-14.3,43.9-36.1l4.9-47
	C521.8,292.6,505.8,273.6,483.9,272.1z"/>
<path class="st1" d="M368.8,350c6.1,15.1,25.4,27.8,42.9,28.3l54.6,1.6c17.5,0.5,32.6-12.3,33.6-28.4l2.1-34.7
	c1-16.1-12.6-29.4-30.1-29.5l-86.4-1.2c-10.6-0.1-31.9,4.4-31.8,10.8C351.5,321.9,368.8,350,368.8,350z"/>
<path class="st1" d="M234.7,347.8c-5.6,15.3-24.4,28.7-41.9,29.9l-54.5,3.5c-17.5,1.1-33-11.1-34.6-27.2l-3.3-34.6
	c-1.5-16.1,11.5-29.9,29-30.6l86.3-4.3c10.6-0.5,32.1,3.2,32.2,9.7C250.9,319.2,234.7,347.8,234.7,347.8z"/>
<g>
	<path class="st1" d="M150.8,518.3c4-2.8,9.3-2.7,13.5-0.5c3,1.1,4.8,4.2,7.9,5.2c1.3,0.5,2.9,0.7,4.2,1.4l-2-0.3
		c7.5-2.5,15.6,0.3,22,4.2c2.1,1.3,4.1,2.7,6.1,4.3l-2.1-0.4c2.6-0.8,5.2-1,7.9-1.1c7.8-0.2,15.7,2.5,21.9,7.2l-1.6-0.3
		c11.1-2.1,22.4,2.9,29.9,11l-1.5-0.5c9-1.7,18.1-1.3,27,0.7c5.2,1.3,10.3,3.2,14.9,6l-0.2,0.4c-3.2-1.5-6.5-2.7-9.9-3.6
		c-10-2.6-20.9-2.8-31-0.5l-0.8,0.2c-1.9-2-4.1-3.8-6.5-5.3c-6.2-4-13.8-6-21.1-4.5l-0.8,0.2l-0.7-0.5c-7.8-5.5-18.1-7.7-27.2-4.7
		c-7-5.8-16.8-11.6-26.1-8.3l-0.7-0.7c-1-1.1-1.8-2.8-3.1-3.7c-2.2-1.6-5.2-1.1-7.7-1.7c-4.3-0.5-8-1.6-12.1-3.4
		C150.9,518.8,150.8,518.3,150.8,518.3L150.8,518.3z"/>
</g>
<g>
	<path class="st1" d="M260.9,544c3.6-5.1,6-11,7.5-17c1-4.5,1.6-9.1,2.6-13.7c0.3-1.5,0.6-3.1,1.1-4.6h0.3
		c2.5,9.6-1.1,19.4-5.7,27.8c-1.6,2.8-3.4,5.4-5.6,7.7C261.1,544.2,260.9,544,260.9,544L260.9,544z"/>
</g>
<g>
	<path class="st1" d="M230.3,537.8c1.9-3.8,3.6-7.8,4.9-11.9c1-4.3,2-8,3.4-12.3l0.3,0c1.8,4.4,0.6,9.2-1.5,13.1
		c-1.8,4-4.1,7.8-6.9,11.2C230.5,538,230.3,537.8,230.3,537.8L230.3,537.8z"/>
</g>
<g>
	<path class="st1" d="M200.1,534.1c1.8-3.7,3.4-7.5,4.8-11.3c1.2-4,2.4-7.6,4.5-11.4l0.3,0c1.1,4.3-0.4,8.6-2.6,12.3
		c-1.9,3.7-4.2,7.2-6.8,10.5L200.1,534.1L200.1,534.1z"/>
</g>
<g>
	<path class="st1" d="M174.4,526.4c1.5-3.4,2.7-7,3.6-10.5c0.6-3.8,1.1-7,2.4-10.7l0.3,0c2,3.6,1.3,7.9-0.4,11.5
		c-1.4,3.6-3.3,7-5.7,10C174.7,526.6,174.4,526.4,174.4,526.4L174.4,526.4z"/>
</g>
<path class="st1" d="M425,50.3c-8.5,0.8-16.8,4-23.2,9.8c-4.7,4.5-8.2,10.3-10,16.5c-1.1,4-2.1,8.3-2.4,12.4
	c-0.6,7.5-0.2,20.6-6,25.9c-0.8,0.6-1.6,0.8-2.5,1.1c-3.9,1.3-7.9,2.4-11.8,3.5c-4,1.1-7.9,2.1-11.9,3.2c-1.8,0.5-4.5,1-6.2,1.7
	c-6.1,2.5-11.2,6.4-16.1,10.6c-3.2,2.8-6.2,5.9-8.7,9.5c-1.6,2.2-3.2,5-3.7,7.9c-0.3,1.5-0.5,2.9-0.8,4.4c-2.7,12-6.1,23.8-8.8,35.9
	l0.5,0.2c3.4-7.6,6.3-15.3,9.1-23c1.9-5.4,3.7-10.9,5-16.5c1.6-5.3,8.8-13,16-18.6c-1.1,2.9-1.4,5.9-2.7,8.7
	c-4,7.9-1.9,14.6,4.9,19.8c1.3,1.2,2.5,2.3,3.3,4.2c0,0,0.5,0,0.5,0c1.7-4-1.8-8.4-3.7-11.4c-1.5-2.1-2.5-4.1-3-6.6
	c-0.8-2.6-0.9-5.6,0.5-8.1c0.9-1.7,2.5-3,3.7-4.4c1.9-2.3,3.3-4.8,4.5-7.5c0.9-0.5,1.8-0.9,2.6-1.2c5.4-1.6,10.9-3.5,16.1-5.6
	c3.8-1.5,7.7-3.1,11.5-4.7c1-0.4,2.2-0.9,3-1.6c2.5-2.2,3.5-5.6,4.3-8.6c1.5-6,2.1-12.3,3.2-18.3c5.2-20.9,12.9-30.6,33-38.6
	C425.1,50.8,425,50.3,425,50.3z"/>
</svg>
