<?xml version="1.0" encoding="UTF-8"?>
<svg xmlns="http://www.w3.org/2000/svg" version="1.1" viewBox="0 0 512 512">
  <defs>
    <style>
      .cls-1 {
        fill: #fff;
      }
    </style>
  </defs>
  <!-- Generator: Adobe Illustrator 28.6.0, SVG Export Plug-In . SVG Version: 1.2.0 Build 709)  -->
  <g>
    <g id="Layer_1">
      <path class="cls-1" d="M280,0c128.1,0,232,103.9,232,232s-10.7,24-24,24-24-10.7-24-24c0-101.6-82.4-184-184-184s-24-10.7-24-24S266.7,0,280,0ZM288,192c17.7,0,32,14.3,32,32s-14.3,32-32,32-32-14.3-32-32,14.3-32,32-32ZM256,120c0-13.3,10.7-24,24-24,75.1,0,136,60.9,136,136s-10.7,24-24,24-24-10.7-24-24c0-48.6-39.4-88-88-88s-24-10.7-24-24ZM117.5,1.4c19.4-5.3,39.7,4.6,47.4,23.2l40,96c6.8,16.3,2.1,35.2-11.6,46.3l-49.3,40.4c33.3,70.4,90.3,127.4,160.7,160.7l40.3-49.3c11.2-13.7,30-18.4,46.3-11.6l96,40c18.6,7.7,28.5,28,23.2,47.4l-24,88c-4.7,17.4-20.5,29.5-38.5,29.5C200.6,512,0,311.4,0,64S12.1,30.2,29.5,25.4c0,0,88-24,88-24Z"/>
    </g>
  </g>
</svg>