<?xml version="1.0" encoding="UTF-8"?>
<svg xmlns="http://www.w3.org/2000/svg" version="1.1" viewBox="0 0 640 512">
  <defs>
    <style>
      .cls-1 {
        fill: #b3fa9b;
      }
    </style>
  </defs>
  <!-- Generator: Adobe Illustrator 28.6.0, SVG Export Plug-In . SVG Version: 1.2.0 Build 709)  -->
  <g>
    <g id="Layer_1">
      <path class="cls-1" d="M96,64c0-17.7,14.3-32,32-32h32c17.7,0,32,14.3,32,32v384c0,17.7-14.3,32-32,32h-32c-17.7,0-32-14.3-32-32v-64h-32c-17.7,0-32-14.3-32-32v-64c-17.7,0-32-14.3-32-32s14.3-32,32-32v-64c0-17.7,14.3-32,32-32h32v-64ZM544,64v64h32c17.7,0,32,14.3,32,32v64c17.7,0,32,14.3,32,32s-14.3,32-32,32v64c0,17.7-14.3,32-32,32h-32v64c0,17.7-14.3,32-32,32h-32c-17.7,0-32-14.3-32-32V64c0-17.7,14.3-32,32-32h32c17.7,0,32,14.3,32,32ZM416,224v64h-192v-64h192Z"/>
    </g>
  </g>
</svg>