<?xml version="1.0" encoding="UTF-8"?>
<svg xmlns="http://www.w3.org/2000/svg" version="1.1" viewBox="0 0 448 512">
  <defs>
    <style>
      .cls-1 {
        fill: #b3fa9b;
      }
    </style>
  </defs>
  <!-- Generator: Adobe Illustrator 28.6.0, SVG Export Plug-In . SVG Version: 1.2.0 Build 709)  -->
  <g>
    <g id="Layer_1">
      <path class="cls-1" d="M176,0c-17.7,0-32,14.3-32,32s14.3,32,32,32h16v34.4C92.3,113.8,16,200,16,304s93.1,208,208,208,208-93.1,208-208-12.3-80.7-33.5-113.2l24.1-24.1c12.5-12.5,12.5-32.8,0-45.3s-32.8-12.5-45.3,0l-21.6,21.6c-28.1-23-62.2-38.8-99.7-44.6v-34.4h16c17.7,0,32-14.3,32-32S289.7,0,272,0h-96ZM248,192v128c0,13.3-10.7,24-24,24s-24-10.7-24-24v-128c0-13.3,10.7-24,24-24s24,10.7,24,24Z"/>
    </g>
  </g>
</svg>