<?xml version="1.0" encoding="UTF-8"?>
<svg xmlns="http://www.w3.org/2000/svg" version="1.1" viewBox="0 0 576 512">
  <defs>
    <style>
      .cls-1 {
        fill: #b3fa9b;
      }
    </style>
  </defs>
  <!-- Generator: Adobe Illustrator 28.6.0, SVG Export Plug-In . SVG Version: 1.2.0 Build 709)  -->
  <g>
    <g id="Layer_1">
      <path class="cls-1" d="M112,96c-26.5,0-48,21.5-48,48v112h96v-112c0-26.5-21.5-48-48-48ZM0,144C0,82.1,50.1,32,112,32s112,50.1,112,112v224c0,61.9-50.1,112-112,112S0,429.9,0,368v-224ZM554.9,399.4c-7.1,12.3-23.7,13.1-33.8,3.1l-187.6-187.6c-10-10-9.3-26.7,3.1-33.8,23.4-13.4,50.5-21.1,79.4-21.1,88.4,0,160,71.6,160,160s-7.7,56-21.1,79.4ZM495.4,458.9c-23.4,13.4-50.5,21.1-79.4,21.1-88.4,0-160-71.6-160-160s7.7-56,21.1-79.4c7.1-12.3,23.7-13.1,33.8-3.1l187.6,187.6c10,10,9.3,26.7-3.1,33.8h0Z"/>
    </g>
  </g>
</svg>